<?xml version="1.0" encoding="iso-8859-1"?>
<!-- Uploaded to: SVG Repo, www.svgrepo.com, Generator: SVG Repo Mixer Tools -->
<svg height="800px" width="800px" version="1.1" id="Layer_1" xmlns="http://www.w3.org/2000/svg" xmlns:xlink="http://www.w3.org/1999/xlink" 
	 viewBox="0 0 512 512" xml:space="preserve">
<g>
	<polygon style="fill:#F64B4A;" points="280.864,191.227 325.836,424.472 256.956,503.663 188.077,424.472 233.037,191.227 	"/>
	<polygon style="fill:#F64B4A;" points="297.193,122.584 290.232,151.823 280.863,191.227 233.036,191.227 223.668,151.834 
		216.707,122.596 256.955,86.835 	"/>
</g>
<g>
	<polygon style="fill:#A0DBFD;" points="216.708,122.596 190.9,145.514 135.504,8.532 256.956,86.835 	"/>
	<polygon style="fill:#A0DBFD;" points="297.193,122.584 256.956,86.835 378.409,8.532 323.013,145.514 	"/>
</g>
<polygon style="fill:#E84242;" points="297.193,122.584 290.232,151.823 256.955,122.258 223.668,151.834 216.707,122.596 
	256.955,86.835 "/>
<path d="M299.035,245.786c-0.882-4.574-5.302-7.566-9.878-6.684c-4.574,0.882-7.567,5.305-6.684,9.878l33.348,172.958L256,490.714
	l-24.81-28.523c-3.057-3.515-8.385-3.885-11.899-0.829c-3.515,3.057-3.885,8.385-0.829,11.899l31.174,35.84
	C251.239,510.943,253.56,512,256,512c2.441,0,4.761-1.057,6.364-2.899l68.879-79.191c1.701-1.956,2.409-4.586,1.917-7.132
	L299.035,245.786z"/>
<path d="M382.828,1.936c-2.834-2.344-6.856-2.583-9.948-0.59L255.998,76.702L139.118,1.346c-3.09-1.992-7.113-1.753-9.948,0.59
	c-2.833,2.344-3.82,6.253-2.443,9.66l55.396,136.982c1.028,2.54,3.226,4.424,5.895,5.049c0.636,0.15,1.283,0.223,1.924,0.223
	c2.041,0,4.041-0.742,5.599-2.128l15.268-13.563l12.646,53.148l-44.617,231.471c-0.491,2.546,0.216,5.175,1.917,7.131l19.692,22.64
	c1.668,1.918,4.011,2.899,6.367,2.899c1.962,0,3.935-0.681,5.532-2.07c3.515-3.058,3.885-8.385,0.829-11.899l-16.997-19.541
	l42.863-222.37h33.903l4.136,21.451c0.777,4.035,4.31,6.84,8.272,6.84c0.53,0,1.066-0.049,1.606-0.154
	c4.574-0.882,7.567-5.305,6.684-9.878l-5.109-26.501l12.649-53.168l15.273,13.567c1.561,1.385,3.558,2.128,5.6,2.128
	c0.641,0,1.288-0.073,1.924-0.223c2.669-0.625,4.867-2.509,5.895-5.049l55.396-136.982C386.649,8.188,385.661,4.28,382.828,1.936z
	 M193.281,131.173l-40.937-101.23l89.754,57.865L193.281,131.173z M273.248,182.7h-34.501l-13.623-57.255l30.876-27.427
	l30.869,27.422L273.248,182.7z M318.719,131.173l-48.816-43.365l89.753-57.865L318.719,131.173z"/>
</svg>