<?xml version="1.0" encoding="iso-8859-1"?>
<!-- Uploaded to: SVG Repo, www.svgrepo.com, Generator: SVG Repo Mixer Tools -->
<svg version="1.1" id="Layer_1" xmlns="http://www.w3.org/2000/svg" xmlns:xlink="http://www.w3.org/1999/xlink" 
	 viewBox="0 0 512 512" xml:space="preserve">
<path style="fill:#FF3F62;" d="M487.063,127.32c-0.072-25.619-20.899-46.33-46.518-46.259
	c-10.408,0.029-19.988,10.082-27.712,15.891c-7.756-5.767-17.392-15.766-27.8-15.737c-25.619,0.072-46.33,20.899-46.258,46.518
	c0.069,24.59,74.363,77.941,74.363,77.941S487.132,151.91,487.063,127.32z"/>
<path style="fill:#FF0C38;" d="M414.243,205.674c0,0,73.995-53.764,73.926-78.354c-0.072-25.619-20.899-46.33-46.518-46.259
	c-10.408,0.029-19.988,10.082-27.712,15.891L414.243,205.674z"/>
<path style="fill:#D7D5D9;" d="M504.733,286.222H339.488l-48.171,131.226c-2.146,5.848-7.704,9.636-13.792,9.636
	c-0.915,0-1.839-0.086-2.769-0.262c-6.611-1.255-11.425-7.024-11.93-13.735l-15.516-206.141l-21.67,68.98
	c-1.924,6.127-7.603,10.295-14.025,10.295H7.941v-29.402h192.885l41.376-131.707c2.29-7.29,9.841-11.705,17.474-9.887
	c6.292,1.498,10.754,7.119,11.239,13.57l16.172,214.855l28.337-77.197c2.125-5.788,7.635-9.635,13.801-9.635h175.508v29.404H504.733
	z"/>
<g>
	<rect x="7.941" y="256.822" style="opacity:0.26;fill:#3E3B43;enable-background:new    ;" width="22.683" height="29.402"/>
	<rect x="481.716" y="256.822" style="opacity:0.26;fill:#3E3B43;enable-background:new    ;" width="22.683" height="29.402"/>
</g>
<path d="M370.949,181.626c18.655,16.475,36.983,29.673,37.754,30.226c1.325,0.952,2.88,1.428,4.436,1.428
	c1.568,0,3.138-0.485,4.47-1.453c0.767-0.558,19.022-13.856,37.584-30.437c35.43-31.646,39.498-46.026,39.476-54.092
	c-0.083-29.72-24.288-53.841-53.99-53.841c-0.051,0-0.101,0-0.152,0c-11.02,0.031-20.223,7.609-27.619,13.698
	c-0.033,0.027-0.066,0.054-0.098,0.081c-0.033-0.027-0.067-0.055-0.1-0.082c-7.414-6.036-16.636-13.543-27.628-13.543
	c-0.021,0-0.045,0-0.066,0c-29.771,0.084-53.924,24.372-53.841,54.143C331.194,135.82,335.342,150.178,370.949,181.626z
	 M385.055,88.82c0.008,0,0.016,0,0.024,0c5.582,0,12.194,5.382,18.026,10.129c1.795,1.46,3.489,2.84,5.191,4.105
	c2.705,2.012,6.414,2.002,9.109-0.025c1.695-1.275,3.381-2.663,5.167-4.134c5.815-4.788,12.407-10.216,17.995-10.231
	c0.037,0,0.072,0,0.109,0c21.334,0,38.723,17.328,38.783,38.676c0.008,2.8-2.443,14.148-34.316,42.633
	c-12.671,11.324-25.492,21.285-32.032,26.235c-6.569-4.913-19.445-14.802-32.178-26.055c-32.031-28.305-34.546-39.64-34.554-42.44
	C346.32,106.327,363.67,88.88,385.055,88.82z"/>
<path d="M504.396,253.071H328.889c-9.314,0-17.728,5.874-20.938,14.619l-16.249,44.267L278.133,131.7
	c-0.802-10.648-9.082-19.263-19.69-20.484c-10.607-1.218-20.631,5.286-23.831,15.474l-39.703,126.382H7.604
	c-4.199,0-7.604,3.405-7.604,7.604v29.402c0,4.199,3.405,7.604,7.604,7.604h203.677c9.793,0,18.345-6.277,21.28-15.62l9.805-31.211
	l12.574,167.061c0.783,10.393,8.843,18.981,19.166,20.417c1.021,0.142,2.059,0.214,3.084,0.214c9.309,0,17.72-5.875,20.93-14.62
	l46.342-126.243h159.935c4.199,0,7.604-3.405,7.604-7.604v-29.402C512,256.476,508.595,253.071,504.396,253.071z M496.792,282.473
	H339.153c-3.19,0-6.04,1.99-7.139,4.984l-48.171,131.227c-1.134,3.09-4.335,5.042-7.641,4.584c-3.285-0.457-5.85-3.19-6.098-6.497
	l-15.546-206.539c-0.274-3.636-3.09-6.567-6.713-6.983c-0.294-0.033-0.585-0.051-0.875-0.051c-3.285,0-6.245,2.128-7.249,5.325
	l-21.67,68.98c-0.934,2.973-3.655,4.97-6.771,4.97H15.208v-14.194H200.49c3.321,0,6.259-2.155,7.254-5.325l41.376-131.707
	c1.018-3.241,4.205-5.313,7.583-4.923c3.375,0.388,6.01,3.13,6.265,6.518l16.2,215.236c0.269,3.569,2.99,6.466,6.534,6.96
	c3.543,0.497,6.953-1.551,8.187-4.911l28.337-77.197c1.021-2.782,3.699-4.652,6.662-4.652h167.904V282.473z"/>
</svg>