<?xml version="1.0" ?>
<!DOCTYPE svg  PUBLIC '-//W3C//DTD SVG 1.1//EN'  'http://www.w3.org/Graphics/SVG/1.1/DTD/svg11.dtd'>
<!-- Uploaded to: SVG Repo, www.svgrepo.com, Generator: SVG Repo Mixer Tools -->
<svg width="800px" height="800px" viewBox="0 0 512 512" version="1.1" xml:space="preserve" xmlns="http://www.w3.org/2000/svg" xmlns:xlink="http://www.w3.org/1999/xlink">
<g id="_x35_53_x2C__Bulb_x2C__Valentine_x2C__Light_x2C__light_bulb__x2C__tips">
<g>
<rect height="27.189" style="fill:#E3C6D3;" width="54.37" x="237.88" y="439.721"/>
<polygon points="245.714,447.721 292.25,447.721 292.25,439.721 237.88,439.721 237.88,466.91     245.714,466.91   " style="fill:#D3AEC1;"/>
<polygon points="310.37,412.54 310.37,439.721 292.25,439.721 237.88,439.721 210.69,439.721     210.69,412.54   " style="fill:#CAE8FB;"/>
<polygon points="218.356,421.131 310.37,421.131 310.37,412.54 210.69,412.54 210.69,439.721     218.356,439.721   " style="fill:#B1D6E8;"/>
<polygon points="310.37,385.36 310.37,412.54 210.69,412.54 210.69,385.36 246.94,385.36 274.12,385.36       " style="fill:#E3C6D3;"/>
<polygon points="218.113,392.86 254.363,392.86 281.543,392.86 310.37,392.86 310.37,385.36 274.12,385.36     246.94,385.36 210.69,385.36 210.69,412.54 218.113,412.54   " style="fill:#D3AEC1;"/>
<path d="M274.12,347.721c-5.91,0.92-11.96,1.39-18.12,1.39c-3.05,0-6.069-0.12-9.06-0.34    c-12.95-0.99-25.311-4.07-36.75-8.9c0.17,0.07,0.33,0.141,0.5,0.21v45.28h36.25h27.18h36.25v-49.53    C299.22,341.65,287.01,345.73,274.12,347.721z" style="fill:#CAE8FB;"/>
<path d="M217.69,385.36v-35.113c-0.17-0.069-0.33-0.14-0.5-0.21c11.439,4.83,23.8,7.91,36.75,8.9    c2.99,0.22,6.01,0.34,9.06,0.34c6.16,0,12.21-0.47,18.12-1.39c10.247-1.582,20.053-4.505,29.25-8.553V335.83    c-11.15,5.82-23.36,9.9-36.25,11.891c-5.91,0.92-11.96,1.39-18.12,1.39c-3.05,0-6.069-0.12-9.06-0.34    c-12.95-0.99-25.311-4.07-36.75-8.9c0.17,0.07,0.33,0.141,0.5,0.21v45.28H217.69z" style="fill:#B1D6E8;"/>
<path d="M246.94,348.771c-12.95-0.99-25.311-4.07-36.75-8.9c-0.04-0.01-0.07-0.03-0.101-0.05    c-0.75-0.31-1.489-0.63-2.22-0.97c-2.01-0.891-3.979-1.84-5.92-2.851c-0.55-0.279-1.1-0.569-1.64-0.87    c-1.051-0.55-2.08-1.13-3.11-1.72c-0.77-0.439-1.53-0.899-2.28-1.359c-0.779-0.471-1.55-0.94-2.31-1.44    c-0.061-0.03-0.13-0.07-0.19-0.12c-0.67-0.42-1.33-0.86-1.989-1.31c-0.761-0.5-1.511-1.011-2.25-1.54    c-0.44-0.32-0.881-0.63-1.311-0.94c-0.56-0.399-1.11-0.81-1.66-1.229c-0.529-0.391-1.05-0.79-1.569-1.2    c-0.75-0.58-1.49-1.17-2.23-1.79c-0.42-0.34-0.83-0.68-1.24-1.03c-0.22-0.17-0.439-0.36-0.66-0.55c-0.38-0.33-0.75-0.65-1.13-0.98    c-0.22-0.18-0.43-0.38-0.649-0.569c-0.391-0.351-0.771-0.7-1.15-1.04c-0.53-0.48-1.05-0.96-1.57-1.46    c-0.51-0.49-1.02-0.98-1.52-1.471c-0.51-0.5-1.01-1-1.51-1.51c-0.5-0.5-0.99-1.01-1.48-1.53c-0.5-0.52-0.979-1.029-1.45-1.56    c-0.479-0.52-0.949-1.05-1.42-1.58c-0.39-0.439-0.779-0.88-1.159-1.33c-1.721-2-3.37-4.069-4.95-6.189    c-0.46-0.62-0.92-1.24-1.36-1.87c-0.16-0.21-0.31-0.431-0.46-0.641c-0.47-0.659-0.93-1.33-1.38-2    c-0.53-0.779-1.05-1.569-1.561-2.369c-0.46-0.7-0.899-1.41-1.329-2.12c-0.931-1.511-1.82-3.051-2.681-4.61    c-0.29-0.52-0.569-1.04-0.84-1.56c-0.04-0.07-0.08-0.141-0.11-0.21c-0.319-0.591-0.63-1.19-0.93-1.79    c-0.84-1.66-1.649-3.341-2.41-5.051c-0.71-1.569-1.38-3.159-2.02-4.77c-0.101-0.271-0.21-0.54-0.311-0.811    c-0.229-0.579-0.449-1.159-0.659-1.739c-0.101-0.271-0.2-0.53-0.29-0.801c-0.23-0.619-0.45-1.239-0.66-1.869    c-0.44-1.28-0.86-2.57-1.25-3.87c-0.2-0.641-0.391-1.28-0.57-1.931c-0.02-0.06-0.04-0.119-0.05-0.189    c-0.26-0.891-0.5-1.79-0.73-2.69c-0.01-0.02-0.01-0.04-0.02-0.069c-0.24-0.931-0.47-1.86-0.68-2.801    c-0.2-0.84-0.381-1.68-0.561-2.52c-0.09-0.431-0.17-0.87-0.25-1.301c-0.06-0.279-0.12-0.56-0.16-0.84    c-0.1-0.489-0.189-0.989-0.279-1.489c-0.15-0.83-0.28-1.671-0.41-2.511c-0.15-0.979-0.29-1.96-0.41-2.939    c-0.12-0.95-0.23-1.9-0.33-2.86c-0.01-0.06-0.01-0.12-0.021-0.189c-0.06-0.601-0.119-1.2-0.159-1.811    c-0.101-1.09-0.181-2.189-0.24-3.3c-0.04-0.59-0.07-1.19-0.09-1.79c-0.021-0.49-0.04-0.98-0.051-1.48    c-0.01-0.229-0.02-0.47-0.02-0.699c-0.03-0.95-0.04-1.91-0.04-2.87c0-65.061,52.74-117.8,117.8-117.8s117.8,52.739,117.8,117.8    c0,0.89-0.01,1.779-0.03,2.66c-0.01,0.369-0.02,0.75-0.039,1.119c0,0.36-0.011,0.711-0.04,1.061c-0.011,0.51-0.03,1.01-0.061,1.51    c-0.04,0.73-0.08,1.45-0.14,2.17c-0.03,0.55-0.08,1.101-0.13,1.65c-0.141,1.72-0.32,3.42-0.551,5.109    c-0.1,0.801-0.21,1.61-0.329,2.41c-0.021,0.16-0.051,0.311-0.08,0.471c-0.131,0.88-0.28,1.77-0.431,2.649    c0,0.01-0.01,0.021-0.01,0.04c-0.14,0.78-0.29,1.57-0.45,2.351c-0.09,0.479-0.189,0.96-0.3,1.439c-0.15,0.73-0.31,1.46-0.479,2.19    c-0.19,0.81-0.391,1.62-0.601,2.42c-0.26,1.05-0.54,2.09-0.83,3.11c-0.22,0.76-0.439,1.51-0.67,2.25    c-0.01,0.029-0.01,0.05-0.02,0.069c-0.11,0.34-0.21,0.67-0.32,1.011c-0.18,0.569-0.36,1.14-0.56,1.71    c-0.561,1.699-1.171,3.39-1.82,5.05c-0.19,0.51-0.391,1.02-0.601,1.52c-0.25,0.63-0.5,1.261-0.77,1.87    c-0.28,0.68-0.57,1.351-0.87,2.021c-0.04,0.09-0.08,0.17-0.11,0.25c-0.17,0.37-0.34,0.729-0.5,1.1c-0.149,0.33-0.3,0.65-0.46,0.97    c-0.199,0.44-0.409,0.87-0.619,1.301c-0.29,0.6-0.591,1.199-0.891,1.789c-0.3,0.591-0.609,1.181-0.92,1.771    c-0.28,0.54-0.57,1.07-0.87,1.61c-0.09,0.17-0.18,0.33-0.27,0.489c-0.58,1.04-1.17,2.07-1.78,3.091c-0.3,0.5-0.6,1-0.91,1.489    c-0.74,1.23-1.52,2.44-2.33,3.63c-0.25,0.391-0.51,0.771-0.79,1.16c-0.17,0.28-0.37,0.561-0.569,0.83    c-0.271,0.4-0.551,0.79-0.83,1.18c-0.771,1.08-1.561,2.15-2.38,3.2c-0.33,0.44-0.681,0.891-1.03,1.33    c-0.88,1.12-1.79,2.22-2.72,3.311c-0.41,0.479-0.83,0.96-1.25,1.439c-0.87,0.99-1.75,1.96-2.66,2.92    c-0.34,0.36-0.69,0.73-1.04,1.09c-0.25,0.271-0.521,0.54-0.78,0.811c-0.31,0.31-0.62,0.62-0.93,0.93    c-0.48,0.48-0.96,0.95-1.45,1.42c-0.46,0.44-0.93,0.88-1.4,1.311c-0.439,0.41-0.88,0.819-1.33,1.229    c-0.529,0.48-1.06,0.95-1.6,1.41c-0.43,0.38-0.86,0.74-1.3,1.11c-1.63,1.39-3.3,2.72-5,4c-0.47,0.35-0.95,0.71-1.431,1.06    c-0.529,0.391-1.06,0.771-1.6,1.15c-0.54,0.39-1.08,0.77-1.63,1.13c-0.3,0.21-0.6,0.41-0.91,0.62c-0.5,0.34-1,0.67-1.5,0.99    c-1.49,0.96-3,1.89-4.53,2.779c-0.489,0.28-0.979,0.57-1.47,0.84c-0.01,0.021-0.02,0.021-0.03,0.021    c-1.119,0.63-2.25,1.25-3.39,1.84c-0.03,0.03-0.06,0.04-0.09,0.05c-11.15,5.82-23.36,9.9-36.25,11.891    c-5.91,0.92-11.96,1.39-18.12,1.39C252.95,349.11,249.931,348.99,246.94,348.771z" style="fill:#FFD15C;"/>
<path d="M174.641,316.019c-0.46-0.62-0.92-1.24-1.36-1.87c-0.16-0.21-0.31-0.431-0.46-0.641    c-0.47-0.659-0.93-1.33-1.38-2c-0.53-0.779-1.05-1.569-1.561-2.369c-0.46-0.7-0.899-1.41-1.329-2.12    c-0.931-1.511-1.82-3.051-2.681-4.61c-0.29-0.52-0.569-1.04-0.84-1.56c-0.04-0.07-0.08-0.141-0.11-0.21    c-0.319-0.591-0.63-1.19-0.93-1.79c-0.84-1.66-1.649-3.341-2.41-5.051c-0.71-1.569-1.38-3.159-2.02-4.77    c-0.101-0.271-0.21-0.54-0.311-0.811c-0.229-0.579-0.449-1.159-0.659-1.739c-0.101-0.271-0.2-0.53-0.29-0.801    c-0.23-0.619-0.45-1.239-0.66-1.869c-0.44-1.28-0.86-2.57-1.25-3.87c-0.2-0.641-0.391-1.28-0.57-1.931    c-0.02-0.06-0.04-0.119-0.05-0.189c-0.26-0.891-0.5-1.79-0.73-2.69c-0.01-0.02-0.01-0.04-0.02-0.069    c-0.24-0.93-0.47-1.86-0.68-2.801c-0.2-0.84-0.381-1.68-0.561-2.52c-0.09-0.43-0.17-0.87-0.25-1.301    c-0.06-0.279-0.12-0.559-0.16-0.84c-0.1-0.489-0.189-0.989-0.279-1.489c-0.15-0.83-0.28-1.671-0.41-2.511    c-0.15-0.979-0.29-1.959-0.41-2.939c-0.12-0.95-0.23-1.9-0.33-2.86c-0.01-0.06-0.01-0.12-0.021-0.189    c-0.06-0.601-0.119-1.2-0.159-1.811c-0.101-1.09-0.181-2.189-0.24-3.3c-0.04-0.59-0.07-1.19-0.09-1.79    c-0.021-0.49-0.04-0.98-0.051-1.48c-0.01-0.229-0.02-0.47-0.02-0.699c-0.03-0.95-0.04-1.91-0.04-2.87    c0-65.061,52.74-117.8,117.8-117.8c30.922,0,59.056,11.92,80.072,31.407c-21.547-27.826-55.274-45.745-93.192-45.745    c-65.06,0-117.8,52.739-117.8,117.8c0,0.96,0.01,1.92,0.04,2.87c0,0.229,0.01,0.47,0.02,0.699c0.011,0.5,0.03,0.99,0.051,1.48    c0.02,0.6,0.05,1.2,0.09,1.79c0.06,1.11,0.14,2.21,0.24,3.3c0.04,0.61,0.1,1.21,0.159,1.811c0.011,0.069,0.011,0.13,0.021,0.189    c0.1,0.96,0.21,1.91,0.33,2.86c0.12,0.979,0.26,1.96,0.41,2.939c0.13,0.84,0.26,1.681,0.41,2.511c0.09,0.5,0.18,1,0.279,1.489    c0.04,0.28,0.101,0.561,0.16,0.84c0.08,0.431,0.16,0.87,0.25,1.301c0.18,0.84,0.36,1.68,0.561,2.52    c0.21,0.94,0.439,1.87,0.68,2.801c0.01,0.029,0.01,0.05,0.02,0.069c0.23,0.9,0.471,1.8,0.73,2.69c0.01,0.07,0.03,0.13,0.05,0.189    c0.18,0.65,0.37,1.29,0.57,1.931c0.39,1.3,0.81,2.59,1.25,3.87c0.21,0.63,0.43,1.25,0.66,1.869c0.09,0.271,0.189,0.53,0.29,0.801    c0.21,0.58,0.43,1.16,0.659,1.739c0.101,0.271,0.21,0.54,0.311,0.811c0.64,1.61,1.31,3.2,2.02,4.77    c0.761,1.71,1.57,3.391,2.41,5.051c0.3,0.6,0.61,1.199,0.93,1.79c0.03,0.069,0.07,0.14,0.11,0.21c0.271,0.52,0.55,1.04,0.84,1.56    c0.86,1.56,1.75,3.1,2.681,4.61c0.43,0.71,0.869,1.42,1.329,2.12c0.511,0.8,1.03,1.59,1.561,2.369c0.45,0.67,0.91,1.341,1.38,2    c0.15,0.21,0.3,0.431,0.46,0.641c0.44,0.63,0.9,1.25,1.36,1.87c1.58,2.12,3.229,4.189,4.95,6.189c0.38,0.45,0.77,0.891,1.159,1.33    c0.471,0.53,0.94,1.061,1.42,1.58c0.471,0.53,0.95,1.04,1.45,1.56c0.49,0.521,0.98,1.03,1.48,1.53c0.5,0.51,1,1.01,1.51,1.51    c0.5,0.49,1.01,0.98,1.52,1.471c0.319,0.307,0.643,0.6,0.964,0.896C175.528,317.171,175.075,316.602,174.641,316.019z" style="fill:#EDBC4F;"/>
<path d="M280.9,168.14c13.779,0,24.939,12.471,24.939,27.851c0,27.85-24.939,43.72-49.859,71.57    c-24.91-27.851-49.82-43.721-49.82-71.57c0-15.38,11.16-27.851,24.91-27.851c12.46,0,18.689,6.96,24.91,20.891    C262.21,175.1,268.44,168.14,280.9,168.14z" style="fill:#EF3E5C;"/>
<g>
<g>
<g>
<path d="M219.28,200.86c0-15.38,11.16-27.851,24.91-27.851c0.447,0,0.87,0.029,1.303,0.047       c-3.819-3.268-8.387-4.917-14.423-4.917c-13.75,0-24.91,12.471-24.91,27.851c0,27.85,24.91,43.72,49.82,71.57       c1.415-1.582,2.83-3.12,4.241-4.629C238.599,240.624,219.28,225.385,219.28,200.86z" style="fill:#E42A53;"/>
</g>
</g>
</g>
<path d="M246.94,390.36c-2.762,0-5-2.238-5-5v-87.943l-24.963-16.636c-2.298-1.532-2.919-4.636-1.388-6.934    c1.532-2.299,4.637-2.917,6.934-1.389l27.189,18.12c1.392,0.928,2.228,2.489,2.228,4.161v90.62    C251.94,388.122,249.701,390.36,246.94,390.36z" style="fill:#415A6B;"/>
<path d="M274.12,390.36c-2.762,0-5-2.238-5-5v-90.62c0-1.672,0.836-3.233,2.228-4.161l27.189-18.12    c2.297-1.531,5.401-0.909,6.934,1.389c1.531,2.298,0.909,5.401-1.389,6.934l-24.962,16.636v87.943    C279.12,388.122,276.882,390.36,274.12,390.36z" style="fill:#415A6B;"/>
<path d="M346.61,417.54H174.45c-2.761,0-5-2.238-5-5s2.239-5,5-5h172.16c2.762,0,5,2.238,5,5    S349.372,417.54,346.61,417.54z" style="fill:#415A6B;"/>
<path d="M346.61,390.36H174.45c-2.761,0-5-2.238-5-5s2.239-5,5-5h172.16c2.762,0,5,2.238,5,5    S349.372,390.36,346.61,390.36z" style="fill:#415A6B;"/>
<path d="M393.718,354.11c-1.151,0-2.307-0.395-3.25-1.202c-2.098-1.795-2.342-4.952-0.546-7.05    c27.276-31.862,42.298-72.539,42.298-114.538c0-97.174-79.052-176.23-176.22-176.23S79.78,134.146,79.78,231.32    c0,41.994,15.019,82.672,42.289,114.539c1.795,2.099,1.55,5.255-0.548,7.05c-2.099,1.796-5.256,1.549-7.05-0.548    C85.651,318.684,69.78,275.697,69.78,231.32c0-102.688,83.538-186.23,186.22-186.23s186.22,83.543,186.22,186.23    c0,44.382-15.875,87.369-44.702,121.042C396.529,353.518,395.127,354.11,393.718,354.11z" style="fill:#415A6B;"/>
<path d="M256,118.521c-2.761,0-5-2.239-5-5V86.34c0-2.761,2.239-5,5-5c2.762,0,5,2.239,5,5v27.181    C261,116.281,258.762,118.521,256,118.521z" style="fill:#EDBC4F;"/>
<path d="M336.45,146.8c-1.279,0-2.56-0.488-3.535-1.464c-1.953-1.953-1.953-5.119,0-7.071l19.22-19.221    c1.951-1.952,5.119-1.952,7.07,0c1.953,1.953,1.953,5.119,0,7.071l-19.22,19.221C339.01,146.312,337.729,146.8,336.45,146.8z" style="fill:#EDBC4F;"/>
<path d="M175.55,146.8c-1.279,0-2.559-0.488-3.535-1.464l-19.22-19.221c-1.953-1.952-1.953-5.118,0-7.071    c1.954-1.952,5.119-1.951,7.071,0l19.22,19.221c1.952,1.952,1.952,5.118,0,7.071C178.109,146.312,176.829,146.8,175.55,146.8z" style="fill:#EDBC4F;"/>
<path d="M138.2,222.72h-27.18c-2.762,0-5-2.238-5-5c0-2.761,2.238-5,5-5h27.18c2.762,0,5,2.239,5,5    C143.2,220.481,140.962,222.72,138.2,222.72z" style="fill:#EDBC4F;"/>
<path d="M400.98,222.72H373.8c-2.762,0-5-2.238-5-5c0-2.761,2.238-5,5-5h27.181c2.762,0,5,2.239,5,5    C405.98,220.481,403.742,222.72,400.98,222.72z" style="fill:#FFD15C;"/>
</g>
</g>
<g id="Layer_1"/>
</svg>